<?xml version="1.0" encoding="utf-8"?>
<!-- Generator: Adobe Illustrator 16.0.0, SVG Export Plug-In . SVG Version: 6.00 Build 0)  -->
<!DOCTYPE svg PUBLIC "-//W3C//DTD SVG 1.1//EN" "http://www.w3.org/Graphics/SVG/1.1/DTD/svg11.dtd">
<svg version="1.1" id="Layer_1" xmlns="http://www.w3.org/2000/svg" xmlns:xlink="http://www.w3.org/1999/xlink" x="0px" y="0px"
	 width="800px" height="800px" viewBox="0 0 800 800" enable-background="new 0 0 800 800" xml:space="preserve">
<g id="uk">
	<g>
		<path fill="#00247D" d="M400,0C180,0,0,180,0,400s176,396,396,400h8c220-4,396-180,396-400S620,0,400,0z"/>
		<path fill="#FFFFFF" d="M704.1,135.5L400.3,339.6L99.5,134.5c-28,32-40.2,50.6-60.2,86.6L296,398.2L40.8,577.1
			c16,36,30.5,54.5,58.5,86.5l296-196L696,672c28-32,47.5-57.5,63.5-97.5L502.8,398.1l261-177C743.8,185.1,732.1,167.5,704.1,135.5z
			"/>
		<g>
			<path fill="#CF142B" d="M749,594L465,406l-84.3,22.6l332,220C720.8,640.6,745,606,749,594z"/>
			<path fill="#CF142B" d="M720.3,155.1L431.2,355l-10.9,26.6L404.7,361L86.6,152.2c-8,8-28.5,37.3-32.5,49.3l287,197l80.8,28.1
				l9-13.5l321-211.5C743.8,189.6,728.3,163.1,720.3,155.1z"/>
			<path fill="#CF142B" d="M85,647.5l312-208l-12.7-62.4l-332,220C60.3,609.1,77,639.5,85,647.5z"/>
		</g>
		<path fill="#FFFFFF" d="M532,532l246.5,0.5c16-40,21.5-88.5,21.5-132.5s-4.8-91.5-20.8-131.5L532,268l-0.2-245.5
			C491.9,6.5,448,0,400,0s-92.2,6.5-132.2,22.5L268,268l-245.8-0.2C6.2,307.8,0,352,0,400s3.8,92.5,19.8,132.5L268,532l0.5,245.8
			c40,16,87.5,22.2,131.5,22.2s92.5-6.2,132.5-22.2L532,532z"/>
		<path fill="#CF142B" d="M480,480h312c4-24,8-52,8-80s-4-56-8-80H480V8c-24-4-52-8-80-8s-56,4-80,8v312H8c-4,24-8,52-8,80
			s4,56,8,80h312v312c24,4,52,8,80,8s56-4,80-8V480L480,480z"/>
	</g>
</g>
<g id="es">
</g>
<g id="sl">
</g>
<g id="ru">
</g>
<g id="pl">
</g>
<g id="it">
</g>
<g id="de">
</g>
<g id="fr">
</g>
<g id="hr">
</g>
</svg>
