<?xml version="1.0" encoding="utf-8"?>
<!-- Generator: Adobe Illustrator 16.0.0, SVG Export Plug-In . SVG Version: 6.00 Build 0)  -->
<!DOCTYPE svg PUBLIC "-//W3C//DTD SVG 1.1//EN" "http://www.w3.org/Graphics/SVG/1.1/DTD/svg11.dtd">
<svg version="1.1" id="Layer_1" xmlns="http://www.w3.org/2000/svg" xmlns:xlink="http://www.w3.org/1999/xlink" x="0px" y="0px"
	 width="801px" height="800px" viewBox="239.5 0 801 800" enable-background="new 239.5 0 801 800" xml:space="preserve">
<g id="uk">
</g>
<g id="es">
</g>
<g id="sl">
</g>
<g id="ru">
</g>
<g id="pl">
</g>
<g id="it">
</g>
<g id="de">
</g>
<g id="fr">
	<g>
		<circle fill="#ED2939" cx="640" cy="400" r="400"/>
		<path fill="#FFFFFF" d="M640,800c48,0,92-8,132-24V24C732,8,688,0,640,0C420,0,240,180,240,400S420,800,640,800z"/>
		<path fill="#002395" d="M508,776V24C352,80,240,224,240,400S352,720,508,776z"/>
	</g>
	<path opacity="0.4" enable-background="new    " d="M640,20c208,0,380,172,380,380S848,780,640,780S260,608,260,400S432,20,640,20
		 M640,0C420,0,240,180,240,400s180,400,400,400s400-180,400-400S860,0,640,0L640,0z"/>
</g>
<g id="hr">
</g>
</svg>
